<?xml version="1.0" encoding="utf-8"?>
<!-- Generator: Adobe Illustrator 16.0.0, SVG Export Plug-In . SVG Version: 6.00 Build 0)  -->
<!DOCTYPE svg PUBLIC "-//W3C//DTD SVG 1.1 Tiny//EN" "http://www.w3.org/Graphics/SVG/1.1/DTD/svg11-tiny.dtd">
<svg version="1.1" baseProfile="tiny" id="Layer_1" xmlns="http://www.w3.org/2000/svg" xmlns:xlink="http://www.w3.org/1999/xlink"
	 x="0px" y="0px" width="512.194px" height="512.006px" viewBox="0 0 512.194 512.006" xml:space="preserve">
<path fill-rule="evenodd" d="M0,271.002C0,261,0,250.999,0,240.996c0.285-1.616,0.703-3.221,0.833-4.849
	c3.888-48.517,19.937-92.628,49.076-131.584C94.397,45.085,153.761,10.638,227.573,1.823c53.025-6.333,103.045,3.953,150.115,29.019
	C479.221,84.911,532.357,203.55,505.098,315.37c-32.655,133.948-163.189,218.065-297.732,191.862
	C102.763,486.86,21.713,404.216,3.914,299.655C2.298,290.158,1.291,280.556,0,271.002z M484.594,324.279
	c-12.556,0-24.688-0.272-36.803,0.058c-23.872,0.649-47.043-2.712-69.878-9.832c-30.059-9.374-60.437-9.323-90.508,0.084
	c-22.492,7.035-45.35,9.935-68.89,9.805c-61.665-0.34-123.333-0.114-185-0.114c-1.948,0-3.896,0-7.521,0
	c5.631,13.369,10.907,25.679,15.979,38.071c1.439,3.516,3.374,4.802,7.396,4.79c59.5-0.167,119-0.202,178.5-0.04
	c11.511,0.032,21.494-3.227,30.534-10.309c5.483-4.296,11.22-8.42,17.317-11.752c24.753-13.526,51.203-14.54,78.216-9.434
	c13.731,2.597,26.683,7.377,37.017,17.318c14.884,14.321,13.282,32.399-3.87,43.914c-9.862,6.619-21.058,9.905-32.623,11.779
	c-17.745,2.875-35.198,2.652-51.492-6.463c-7.133-3.991-11.229-9.928-10.976-18.201c0.229-7.479,4.826-11.987,11.233-15.183
	c9.433-4.705,19.36-6.041,29.638-4.471c4.104,0.627,8.061,2.226,12.373,3.464c-2.851,5.666-5.231,10.396-7.729,15.36
	c-9.772-3.291-19.095-3.366-28.989,2.679c3.443,1.687,6.056,3.414,8.927,4.3c16.202,5,32.305,3.681,48.043-1.888
	c5.235-1.854,10.314-4.669,14.816-7.938c4.724-3.432,5.021-7.129,1.353-11.608c-2.58-3.151-5.759-6.113-9.256-8.161
	c-24.261-14.204-71.444-16.509-99.302,6.557c-14.883,12.323-31.383,17.414-50.671,17.212c-53.994-0.563-107.998-0.196-161.998-0.196
	c-1.715,0-3.431,0-5.146,0c-0.251,0.451-0.502,0.902-0.753,1.353c7.691,9.769,15.464,19.476,23.019,29.348
	c2.056,2.686,4.36,3.463,7.624,3.456c44.667-0.093,89.334,0.086,134-0.125c22.828-0.107,45.094,2.634,66.931,9.569
	c30.879,9.807,61.964,9.711,92.941,0.184c15.813-4.862,31.811-8.519,48.421-9.23c2.03-0.087,4.522-1.335,5.903-2.858
	c23.033-25.409,39.733-54.508,50.225-87.16C483.986,327.398,484.177,326.114,484.594,324.279z M495.788,247.202
	c-2.371-15.297-4.595-30.05-7.078-44.758c-0.167-0.993-2.237-2.248-3.522-2.376c-17.522-1.765-34.9-0.328-52.251,2.37
	c-17.426,2.709-34.847,5.679-52.382,7.388c-22.725,2.215-45.219-1.093-67.51-5.37c-29.054-5.576-58.076-7.016-87.382-1.654
	c-16.354,2.993-32.864,5.433-49.41,7.017c-22.895,2.191-45.532-1.147-68.018-5.314c-24.847-4.604-49.758-7.093-75.019-3.538
	c-10.312,1.451-10.576,1.072-12.124,11.427c-1.713,11.46-2.98,22.987-4.484,34.81C176.557,247.202,335.444,247.202,495.788,247.202z
	 M27.179,184.477c7.236-0.674,12.848-1.229,18.465-1.714c23.655-2.043,46.882,1.434,69.993,5.765
	c27.75,5.2,55.471,6.442,83.428,1.578c16.226-2.824,32.538-5.311,48.902-7.142c24.444-2.735,48.542,1.052,72.478,5.542
	c27.751,5.207,55.456,6.407,83.429,1.629c17.705-3.024,35.535-5.439,53.389-7.412c8.367-0.925,16.922-0.158,26.651-0.158
	c-4.816-11.21-9.466-21.623-13.739-32.189c-1.658-4.099-3.875-5.48-8.46-5.475c-137.159,0.155-274.319,0.126-411.479,0.126
	c-1.167,0-2.428-0.275-3.476,0.078c-1.239,0.418-2.879,1.12-3.339,2.148C38.068,159.213,32.908,171.258,27.179,184.477z
	 M54.092,127.646c135.071,0,268.846,0,403.188,0c-11.97-18.676-25.829-34.953-41.944-49.292c-1.18-1.049-3.307-1.447-4.993-1.448
	c-102.975-0.066-205.949-0.069-308.922,0.019c-1.795,0.001-4.091,0.666-5.303,1.874c-7.9,7.873-15.922,15.671-23.2,24.104
	C66.354,110.505,60.693,118.887,54.092,127.646z M16.583,264.93c1.729,12.723,3.572,24.725,4.887,36.783
	c0.49,4.481,2.198,5.567,6.537,5.559c66.348-0.14,132.696-0.132,199.043-0.073c16.444,0.015,32.569-1.935,48.24-7.019
	c28.04-9.098,56.65-12.352,85.757-7.058c13.218,2.402,26.087,6.681,39.176,9.852c28.604,6.928,57.745,3.347,86.661,4.102
	c0.961,0.025,2.705-1.132,2.824-1.929c1.989-13.249,3.777-26.528,5.667-40.217C335.346,264.93,176.56,264.93,16.583,264.93z
	 M410.37,437.241c-7.695,1.973-14.213,3.256-20.476,5.312c-37.971,12.471-75.896,12.531-113.858,0.067
	c-15.816-5.192-32.131-7.306-48.701-7.348c-41.166-0.104-82.333-0.037-123.5-0.021c-1.379,0-2.759,0.193-4.614,0.332
	C189.707,517.083,328.525,511.094,410.37,437.241z M390.967,59.525c-86.118-61.208-201.183-51.203-269.351,0
	C211.306,59.525,300.646,59.525,390.967,59.525z"/>
</svg>
